<?xml version="1.0" standalone="no"?>
<!DOCTYPE svg PUBLIC "-//W3C//DTD SVG 20010904//EN"
 "http://www.w3.org/TR/2001/REC-SVG-20010904/DTD/svg10.dtd">
<svg version="1.0" xmlns="http://www.w3.org/2000/svg"
 width="2000.000000pt" height="2000.000000pt" viewBox="0 0 2000.000000 2000.000000"
 preserveAspectRatio="xMidYMid meet">
<metadata>
Created by potrace 1.14, written by Peter Selinger 2001-2017
</metadata>
<g transform="translate(0.000000,2000.000000) scale(0.100000,-0.100000)"
fill="#000000" stroke="none">
<path d="M9835 13814 c-628 -41 -1193 -231 -1703 -571 -61 -41 -115 -79 -118
-84 -3 -5 17 -9 45 -9 48 0 50 -1 43 -22 -12 -33 -4 -54 24 -67 18 -8 170 -11
517 -11 l492 0 151 44 c580 169 1090 166 1674 -10 l116 -35 498 3 c479 3 498
4 512 22 22 30 17 46 -24 85 -82 78 -453 283 -707 392 -281 119 -615 206 -940
244 -131 15 -468 26 -580 19z"/>
<path d="M6233 12788 c116 -222 2297 -4023 2318 -4040 29 -25 71 -23 96 5 22
24 371 648 410 735 18 38 23 63 19 84 -3 17 -161 311 -351 654 -190 342 -345
630 -345 638 0 8 9 20 19 26 13 7 261 10 735 10 421 0 725 4 739 9 14 6 35 20
47 33 12 13 116 188 231 389 224 392 235 420 187 453 -12 9 -33 16 -46 16 -20
0 -21 3 -12 20 11 20 6 20 -1227 22 l-1238 3 2 34 c0 18 6 38 13 45 8 8 733
12 2808 16 2197 4 2802 8 2819 17 11 7 30 27 41 45 56 94 403 762 408 787 5
23 1 35 -19 55 -15 14 -36 26 -47 26 -17 0 -20 4 -15 20 6 20 2 20 -3825 20
l-3831 0 64 -122z"/>
<path d="M9602 10200 l-953 -1630 59 -112 c155 -294 1285 -2306 1308 -2325 33
-30 47 -29 84 5 27 24 1714 2934 1761 3037 26 57 25 185 -2 292 -12 46 -19 89
-16 97 4 11 31 15 108 18 l102 3 34 40 c40 45 1230 2037 1240 2074 10 41 -8
74 -49 86 -31 8 -35 13 -27 28 10 16 -57 17 -1343 17 l-1353 -1 -953 -1629z
m1949 670 l188 0 -49 -87 c-26 -49 -120 -216 -207 -373 l-160 -285 -291 -3
c-161 -1 -292 1 -292 5 0 5 85 168 188 363 220 415 202 395 346 386 49 -3 174
-6 277 -6z m-1023 -1737 l181 -6 -16 -31 c-70 -138 -628 -1106 -635 -1104 -5
2 -68 105 -139 228 -90 156 -129 234 -129 256 0 20 51 132 146 320 151 297
165 321 199 335 25 10 161 11 393 2z"/>
<path d="M13253 11348 c-5 -7 -97 -161 -204 -343 l-194 -330 3 -115 c13 -468
-118 -993 -354 -1414 -261 -469 -682 -882 -1135 -1116 l-106 -54 -174 -296
c-154 -261 -179 -309 -159 -304 63 16 60 17 60 -25 0 -43 18 -61 62 -61 34 0
265 80 403 139 729 314 1325 872 1674 1570 179 357 279 691 333 1111 15 124
15 586 -1 715 -19 154 -61 376 -78 412 -16 34 -41 48 -72 38 -15 -5 -20 2 -30
40 -12 49 -14 51 -28 33z"/>
<path d="M6752 11238 c-56 -268 -72 -421 -72 -707 0 -561 115 -1019 390 -1548
391 -755 1020 -1311 1827 -1617 172 -65 233 -62 233 12 0 17 -196 368 -296
529 -41 65 -54 78 -137 129 -249 154 -379 255 -563 439 -425 423 -689 937
-783 1525 -23 139 -41 343 -41 459 0 52 -6 89 -19 116 -25 57 -348 613 -377
653 -18 23 -33 32 -54 32 -24 0 -33 7 -50 40 -11 22 -24 40 -29 40 -4 0 -17
-46 -29 -102z"/>
</g>
</svg>
